<svg xmlns="http://www.w3.org/2000/svg" viewBox="0 0 512 512"><defs><linearGradient id="g" x1="0" y1="0" x2="1" y2="1"><stop stop-color="#ef233c"/><stop offset="1" stop-color="#081a33"/></linearGradient></defs><rect width="512" height="512" rx="112" fill="#081a33"/><path d="M256 55c-88 0-160 72-160 160 0 122 160 242 160 242s160-120 160-242c0-88-72-160-160-160z" fill="url(#g)"/><path d="M256 116c-55 0-99 44-99 99 0 75 99 149 99 149s99-74 99-149c0-55-44-99-99-99z" fill="#fff"/><circle cx="256" cy="215" r="46" fill="#081a33"/><path d="M230 215l18 18 37-43" fill="none" stroke="#ef233c" stroke-width="13" stroke-linecap="round" stroke-linejoin="round"/><path d="M190 93h132" stroke="#fff" stroke-width="12" stroke-linecap="round" opacity=".85"/></svg>
